# xmcd
# 
# Track frame offsets:
#     150
#     14047
#     26258
#     38492
#     48447
#     61098
#     74059
#     85565
#     97818
#     110032
#     123077
#     136513
#     148135
#     162016
#     176722
#     189202
#     199991
#     213862
#     228150
#     241742
# 
# Disc length: 3391
# 
# Revision: 1
# Processed by: cddbd v1.5.2PL0 Copyright (c) Steve Scherf et al.
# Submitted via: fre:ac v1.0.17
# 
DISCID=000d3d14
DTITLE=Little Walter - Juke
DYEAR=2007
DGENRE=Blues
TTITLE0=You'd Better Watch Yourself
TTITLE1=Last Night
TTITLE2=Boom, Boom, Out Goes The Lights
TTITLE3=Evans Shuffle
TTITLE4=Thunder Bird
TTITLE5=Tonight With A Fool
TTITLE6=My Babe
TTITLE7=Juke
TTITLE8=I Got To Go
TTITLE9=Mean Old World
TTITLE10=I Can't Hold Out Much Longer
TTITLE11=Too Late
TTITLE12=Blues With A Feeling
TTITLE13=Blue Lights
TTITLE14=Tell Me Mama
TTITLE15=Who
TTITLE16=Come Back Baby
TTITLE17=Sad Hours
TTITLE18=Crazy For My Baby
TTITLE19=Off The Wall
EXTD=YEAR: 2007
EXTT0=
EXTT1=
EXTT2=
EXTT3=
EXTT4=
EXTT5=
EXTT6=
EXTT7=
EXTT8=
EXTT9=
EXTT10=
EXTT11=
EXTT12=
EXTT13=
EXTT14=
EXTT15=
EXTT16=
EXTT17=
EXTT18=
EXTT19=
PLAYORDER=
